/* XPM */
static char * mine_xpm[] = {
"160 101 15 1",
" 	c None",
".	c #161C2E",
"+	c #506A69",
"@	c #669D9D",
"#	c #9E785D",
"$	c #8CC3C4",
"%	c #E9F044",
"&	c #CEA554",
"*	c #FFFFFF",
"=	c #D0DEB5",
"-	c #3C474B",
";	c #B48355",
">	c #DAB570",
",	c #866353",
"'	c #A9ADB0",
"                                                                                                                                                                ",
"                                                                        ..................                                                                      ",
"                                                                    ..........++++++++........                                                                  ",
"                                                             ..............+++@@@++++++++............                                                           ",
"                                                         .........@@@@@@@++++@@@@@@@@@@@++++++++.###.....                                                       ",
"                                                       ....$$$..@@@@@@@@@@@@+@@@@@@@@@@@@@@+++@@+#%%%$$....                                                     ",
"                                                     .....$$$..@@@@$$$$$@@@@++@@@@@@@@@@@@@++@@@+&&**$$......                                                   ",
"                                                   .....$$$$$..@$$$$$$@@@@@@@+@@@@@@@@@@@@@+@@@@@.&%.$$$$$.....                                                 ",
"                                                  ...@@@$$$$$@@@$$@@@@@@@@@@@@@@@@@@@@@@@@@@@@@@@...@$$$$@@@@...                                                ",
"                                                 ...+@@@$$$$@@@@@@@@@@@@@@@@@@@@@@@@@@@@$$@@@@@$$+.@@@$$$$@@@+...                                               ",
"                                                ...++@@@$$$$@@@@@@@@@@@@@@$$$++@@@@@$$$$$@@@@@$$$$$@@@$$$$@@@++...                                              ",
"                                          ........+++@@@$$$$@@@###$$$$$$$$+++++$$$$$$$$$$@@@$$$$.$@@@@$$$$@@@+++........                                        ",
"                                         .........+++@@@$$$$@@#####$$$$$$$$@@@+$$$$$$$$$$$$$$$$..++@@@$$$$@@@+++.........                                       ",
"                                        .....@....+++@@@@$$$$@#*%%#$$$$$$@@@@+++$$$$$$$$$$$$$$$..++@@$$$$@@@@+++....@.....                                      ",
"                                       ...@@@@+...++++@@@===$$%**%%@@@@@@@@@@@@++++$$$$$$$$$$$..++$$$$$==@@@++++...+@@@@...                                     ",
"                                    .....@@@@@+..+++++@@@@===$%%*&&.+@@@@@@@@@@@@@@@$$$$$$+@$@..+$$$$$==@@@@+++++..+@@@@@.....                                  ",
"                                   ......@@@@++..++++++@@@@@@@@%&&..+++@@@@@@@@@@@@@@@@@@++$$..++@@@@@@@@@@++++++..++@@@@......                                 ",
"                                  ..@@...@@@@++..+..++++@@@@@@@++..@$$@@@@@@@@@@@@@@@@@++++$$$@+++@@@@@@@@++++..+..++@@@@...@@..                                ",
"                                  .@@@@+.@@@###-.++@.+++@@@@@@++++++$$$$$@@@@@@@@@@@@@@@@@$$$$++++###@@@@@+++..++.-++@@@@.+@@@@.                                ",
"                                 ..@@@@+++@#####.++@..@@@@@@@@+++++++@@@@@@@@@$$$$$$$@@@$$$$$$@+######@@@@@@...++.++@@@@+++@@@@..                               ",
"                                ...@@@@+++@#*%%#++@@$$$@@@@@+++++++++$$@@@$$$$$$$++++++++$$$$@@###%%%%#@@@@$$$$$++++@@@@+++@@@@...                              ",
"                               ....@@@@+-+@%**%%++@@$$$$@$$@+++++.++++$$$$$@$+++++..+++$$$$@@@@..%%%%**#@$$$$$$$+++@@@@@+-+@@@@....                             ",
"                              ..+..+@@@+--@%%*&&.+@@$$$$$$$...+++.++++$$$$$$$$$$+++..+@$$@@@@@..&&%****#$$$$$$$$++-@@@@@--+@@@+..+..                            ",
"                             ...++.+@@@----@%&&..+++$$$$$$$$$.....+++@@@$$$$$$$$$==..+@@@@@@@@..&&&***%#$$$$$$$++++@@@@----@@@+.++...                           ",
"                            ...+++--+@--------..++++$$$$$$$$$$$...+++@@@@@@$$$$=====++@@@@@@@@+.&&&%%%%++$$$$$++++.---------@+--+++...                          ",
"                            ..+++++-----------..+++++$==$$$$$$$...+++@@@@@@@@@@@@@@@++@@@@@@@@@..&&&%%%+$$$$$+@+++..-----------+++++..                          ",
"                           ..++++++----------..-++@@@@@===@@$$$..++++@@@@@@@@@@@@@@@+++@@@@@@@@+...&&&+$$$$@@@@@+++..----------++++++..                         ",
"                          ....+++++.----####-..+++@@@@@@@@@@@....++++@@@@@@@@@@@@@@@+.+@@@@@@@@++...+++@@@@@@@@@+++..---------.+++++....                        ",
"                        ....--++++..+..##%%...++++@@@@@@@@@@......++@@@@@@@@@@@@@@@@+.+@@@@@@@++......@@@@@@@@@@++++.---.....+..++++--....                      ",
"                      .....---+++..$$$$#**%%..++++@@@@@@@@@@$$$$$$+++++@@@@@@@@@@@@@+.++@@@@@@...$$$$..@@@@@@@@@+++++....$$$$$$..+++---....                     ",
"                      ...+++--....$$$$$%***&..++++@@@@@@@@@$$$$$$$$++++++@@@@@@@@@@++.++@@@@@@$$$$$$$$$@@@@@@@@@+++++..@@$$$$$$@....--+++...                    ",
"                     ..+++++--...$$$$$.%%%&&..####.@@@@@..$$$$$$$$$$$++++++@@@@@@@+++.+++@@$$$$$$$$$$$$$..@@@@@.+++++@@@@$$$$$$$@...--+++++..                   ",
"                     .-+++++-...+$$$$$..%%&..#######.....+@$$$$$$$$$$$$$$++++@@@@@+++..++@$$$$$$$$$====@+...........@@@$$$$$$$$$++...-+++++-.                   ",
"                    ---++++++..+++$$$$$@@....#%%*%###..++++@@$$$$$$$$$$$$$...++++++++..++$$$$$$$====@@@@+++......@@@@@$$$$$$$$$$@++....++++---                  ",
"                   ---+++++...++++$$$$$$$$$.%**%%%%##.+++++@@@$$$$$$$$$$$$$+.+++++++....+++++$===@@@@@@@++++..@@+@@$$$$$$$$$$$$$++++...+++++---                 ",
"                   ---+++++..+++++@$$$$$$$$%%***%%%##.+++++@@@@@===========+..+++++.......++++@@@@@@@@@@++++++++++$$$$$$$$$$$$$@+++++..+++++---                 ",
"                   --+++++..+++++@@@@$$$===%%%****&#..+++++@@@@@@@@@======+.....+...$$$$$$$++++@@@@@@@@@+++++#####+$$$$$$$@@@@@@@+++++..+++++--                 ",
"                 ..--++++...+++++@@@@@@@==.%%%%%&&&&..++++++@@@@@@@@@@@@@@+.+$$$$$$$$$$$$$$$++++@@@@@@@@++++########+$$$$$@@@@@@@+++++.....++--..               ",
"                 ..--.---...+++++@@@@@@@@@.%%%%%&&&&..++++++++@@@@@@@@@@@++.++$$$$$$$$$$$$$$$.++@@@@@@@@+++..%%%%%*#+@@@@@@@@@@@@+++++...###.--..               ",
"                .......-....+++++++@@@@@@@@@%%.&&&&..+++++@@@@@@@@@@@@@@@++..++$$$$$$$$$===++.+@@@@@@##@++..%%%%%**%@@@@@@@@@@@@++++++...#%%%.....              ",
"                ....+--......+++++@@@@@@@@@@@..&&......+++@@@@@@@@@@@@@@@++..++@@@@$$$==@@@@+.+@@@@@####++..%%%%%**%%@@@@@@@@@@@+++++....&&**+....              ",
"               ...+++--...++...+++@@@@@@@@@@@...++++.+++++@@@@@@@@@@@@@@@++..++++@@@@@@@@@@@+.+@@@@..%%*#+.&&%%***%%%.@@@@@@@@@@+++...++..&%.+++...             ",
"              ...+++++-..++++@@@@@...@@@@@@@@@.+++++..+++@@@@@@@@@@@@@@@@++.+++@@@@@@@@@@@@@..+@@@..&%**#..&&&&&%%%%%.@@@@@@@...@@@@@++++...+++++...            ",
"              ...+++++--.++++@$$$$$+...+@@@@@@.++++...++.@@@@@@@@@@@@@@@@++.+++@@@@@@@@@@@@@..++++..&&%%%...&&&&%%%%%..@@@+...+$$$$$@++++..-+++++...            ",
"             ..-.++++++-.++++$$$$$$$$....$$@++.+++........@@@@@@@@@@@++++####++@@@@@@@@@@@@@...$$$$..&%%.....&&&&%%..++$$....$$$$$$$$++++.-++++++.-..           ",
"             .---++++++..++++$$$$$$$$$$$$$$$+$++.......$$$..@@@@@@@@@@@+##%%##+@@@@@@@@@@@...$$$$$$$..$$$$$.....&&+++$$$$$$$$$$$$$$$$++++..++++++---.           ",
"            .++--+#####..++++$$$$$$$$$$$$$$$$$$++++..@@$$$$$++@@@@@@@@@.#&%**#+@@+++$$$$$$$$$$$$$$$$$$$$$$$@@..++++$$$$$$$$$$$$$$$$$$++++..++++++--+..          ",
"            .++--##%%###+++@$$$$$$$$$$$$$$$$$$$$+++..+@$$$$$$+++@@@@@@@..&&*%..+++.+$$$$$$$$$$$$$$$$@@@$$$$@+..+++$$$$$$$$$$$$$$$$$$$$@+++.-+++++--++.          ",
"            +++-##*%%%##++@@$$$$$$$$$$$$$$$$$$$$++..++++$$$$$$$$$@@@++++..&&%++++..+++$$$$=====@@@@@@@@@$$++++..++$$$$$$$$$$$$$$$$$$$$@@++..+++++--++.          ",
"            +++-##**%%&#.@@@$$$$$$$$$$$$$$$$$$$$+++..+++@$$$$$$$$$$$$$$$$$$$..+++..++++@@@@@@@@@@@@@@@@@$@+++..+++$$$$$$$$$$$$$$$$$$$$@@@+..++++.--+++          ",
"            +++-.%%%&&&..@@@@@$$$$$$$$$$$$$$$++@+++..+++++$$$$$$$$$$$$$$$$$$$$@++..+++@@@@@@@@@@@@@@@@@@+++++..+++@++$$$$$$$$$$=====@@@@@++..--+.--+++          ",
"           .+++-.%%%&&&..@@@@@@@@@@$$========++++++..+++++@@$$==========$@@@@@@++..+++@@@@@@@@@@@@@@@@@@+++++..++++++==========@@@@@@@@@@++......--+++          ",
"           .-++--..&&&...@@@@@@@@@$$$=====@@@++++++..+++++@@@@@==========@@@@@@+++.+++@@@@@@@@@@@@@@@@@@+++++..++++++@@@========@@@@@@@@@@......---++-.         ",
"           .-----.......@@@@@@@@@@@@@@@@@@@@+++++++..+++++@@@@@@@@@@@@@@@@@@@@@+++.++++++@@@@@@@@@@@@@+++++++..+++++++@@@@@@@@@@@@@@@@@@@@......------.         ",
"           .-----..++++.@@@@@@@@@@@@@@@@@@@@+++++++..++++++++@@@@@@@@@@@@@@@@@+++..+++++@@@@@@@@@@@@@@@@@++++..+++++++@@@@@@@@@@####@@@@@@.++++.------..        ",
"          .----++..+@@@+.@@@@@@@@@@@@@@@@@@@+++++++....++@@@@@@@@@@@@@@@@@@@@@..;;..++++@@@@@@@@@@@@@@@@@++++..+++++++@@@@@@@@@..%%##@@@@.+@@@+..------.        ",
"          .----...++@@@@...@@@@@@@@@@@@@@@@@@+++++......+@@@@@@@@@@@@@@@@@@@...;;;;;+...@@@@@@@@@@@@@@@@...++...+++++@@@@@@@@@..%%**#@@...@@@@++...----.        ",
"         ..----...+++@@@$$$$@@@@@@@@@@@@@@@@@++++....;;;....@@@@;@@@@@@@;;..;;;;>;;;;;..;;.....@@@........;;;....++++@@@@@@@@@..&***%@$$$$@@@+++...----..       ",
"         ..----..+++++@@$$$$$$$@@@@@@@@@@@@@@++.....;;;;;;;;;;..;;;;;;;;;>..>>>>>>>;>>..>;;;;;;;;;..;;;;;;;;;;.....++@@@@@####..&&%%%.$$$$@@++++####---..       ",
"        ...---...++++++++$$$$$$$$$$@@@@@@@@@@+......;;;>>;>>>>..;;;>>>>>;>..>>>>>>>>>>..>>>>;;;;;>..>>>>>>;>>>......+@@@#######..&%%..$$$++++++##%%##--...      ",
"        ..----..+++++++++$$$$$$$$$$$$@@@@@@@+++++....;>>>;>>>>..>>>;>>>>;>..>>>>>;>>>>..>>>>>;>>>>..>>>>>>;>>....+++++@###%*%%#....$$$$$$+++++.#&%**#---..      ",
"        ..---...+++++++++++$$$$$$$$$$$$@@@@++++++++...,,,,,......,,,,,>,,....,,,,,,.......>,,,,.......,,,,;....+++++++.##%%%%**%.$$$$$$+++++++..&&*%..--..      ",
"        ..-...$.++++++++#####+$$$$$$$@@++++++++++++..;;,;;;;;;..;;;,;;;;;;..,;;;;,;;;;..;;>;;;;;;;..;;;;;;,;;..+++++++.##%%%***%%$$$+++++++++++..&&%...-..      ",
"        ....+.$$$+++++########++@@@@@@@@+.+++++++++..;;,;;;;;;..;;;,;;;;;;..;;;;;,;;;;..;;,;;;;;;;..,;;;;;,;;..+++++++..#&****%%%@+++++++++++++++$$..+....      ",
"        ..+++.$$$$$+++#*%%%%%..+@@@@@@@@+.+++++++++..;;;;;;,;;..;;>;;;;;;;..;;;;;,;;;;..;;,;;;,;;;..,;;;;;,;;..+++++++..&&&&%%%%%.+++++++++++++$$$$$.+++..      ",
"        ..++@@$$$$$$$$%**%%%%%..@@@##@@@+..++++++....;;;;;;,;;..;,>;;;;,;;..;;;;;;;;;;..;;;;;;,;;;..,;;;;;;;;....+++++..&&&&%%%%%.++++++++++$$$$$$$$@@++...     ",
"        .+++@@$$$$$$$%%**%%%%%....####@@+..++++......;;;,;;,;;..;,;;%%%,%%..;;;,;%%%%,..;%%%%%,;;;..%;,;;;;;;......++++..&&&&.%%...++++++++$$$$$$$$$@@+++..     ",
"      ...++@@@$$$$$$.%%%***%%&&..#*%%..@+...++........;;,%%.%....,;%%%%.%....;;,;%%%%....%%%%%..;....%,%;;;;........+......&&..@+......$$$$$$$$$$$$$@@@++...    ",
"      ...++@@@@$$$$$.%%%%%&&&&&..#**%&....$$$$$$+++............................................................+++$$$$$$$$$$$$$$++..+$$$$$$$$$$$$$$@@@@++...    ",
"      ..+++@@@@$$$$..%%%%%&&&&..+%%%&&..$$$$$$$++++.......................%%..........%%.......................++++$$$$$$$$$$$$$$+..+$$$$$$$==$$$$$@@@@+++..    ",
"      ..++@@@@@@@@@++..%%&&&&...+.%%&..$$$$$$=++++++................%%%%%%%%%%%%%%%%%%%%%%%%%%................++++++===$$$$$$$$$$+..++@@$====='''@@@@@@@++..    ",
"      ..++@@@@@@@@@@@@@@&&&.....++++..$$$$===+++++++..,,,..,,,,,...%%%%%%%%%%%%%%%%%%%%%%%%%%%%...,,,,,..,,,..+++++++======$$$$$++..++@@@@@@@@@@@@@@@@@@++..    ",
"      ..+@@@@@@@@@@@@@@@@+++++.++++++@$$===@@@@+++++..,,,,.,,,,,,..%%%%%%%%%%%%%%%%%*****%%%%%%..,,..,,.,,,,..+++++@@@@@===$@@+++++++++@@@@@@@@@@@@@@@@@@+..    ",
"     ...+@@@@@@@@@@@@@@@@@@+++.++@@@@@@@@@@@@@@@++++..,,,,.,,,,,,..%%%%%%%%*******%%%%%%%%%%%%%..,,,.,,.,,,,..++++@@@@@@@@@@@@@@@+..+++@@@@@@@@@@@@@@@@@@+...   ",
"     ...+@@@@@@@@@@@@@@@@@@++...+@@@@@@@@@@@@@@@++++...,,,.,,,,,,..%%%%%%*********%%%%%%%%%%%%%..,,,.,,,,,,,..++++@@@@@@@@@@@@@@@+..+++@@@@@@@@@@@@@@@@@@+...   ",
"     ....@@@@@@@@@@@@@@@@@@###..+@@@@@@@@@@@@@@@@+++...,;;,;;;;%,,..%%%%%%%**********%%%%%%%%%...,%;.;;,;;,...+++@@@@@@@@@@@@@@@@+......@@@@@@@@@@@@@@@@@....   ",
"     ....+@@$$@@@@@@@@@@@@#####..+@@@@@@@@@@@@@@@++++..,;;,;;;;%,,..%%%%%%%*******%%%%%%%%%%%%..,%%;,;;,;;,..++++@@@@@@@@@@@@@#####+....@@@@@@@@@@@@$$@@+....   ",
"     ..+++++$$$$@@@@@@@+++#*%%#...@@@@@@@@@@@@@@@++++..,;;,;;;;%,,..%%%%%**************%%%%%%%..,%%;,;;,;;,..++++@@@@@@@@@@@@###%%##$$..+++@@@@@@@$$$$+++++..   ",
"    ...++@@@$$$$$@@@@$$$$$%**%%...@@@@@@@@@@@@@@@++++..,;;,;,;;%,%..%%%%%**************%%%%%%%..,%%;;;;,;;,..++###@@@@@@@@@@@##%%%*##$$$$$$$$@@@@$$$$$@@@++...  ",
"    ..+++@@@@$$$$$$$$$$$$$%%*&&...@@@@@@@@@@@@@@++++...,;;,;,,;;,%..%%%%%%%%%%%%%%%%%%%%%%%%%%..%%%>;,;,;;,...#####@@@@@@@@@.#&%%**##$$$$$$$$$$$$$$$$@@@@+++..  ",
"   ...+++@@@@@$$$$$$$$$$$$$%&&....@@@@@@@@@@@@+++++.....;;,;;,;;%%..%%%%%%%%%%%%****%%%%%%%%%...%%;>;,;,;;....#%%*#+@@@@@@@@..&&&%%%.$$$$$$$$$$$$$$$@@@@@+++... ",
"   ...++@@@@@@@$$$$$$$$$$$$$$..+..+++@@@@@@@++++++......;;;;;,>;%%..%%%%%%%%%%%%*******%%%%%%...%%>>;,>;;;....%%**%+++@@@@@@..&&&%%%.$$$$$$$$$$$$$$@@@@@@@++... ",
"  ...+++@@@@@@@@=====$$$$$=@@@+.$$$$$$$$$$$$$++.........;;;;.,>;%%..%%%%%%%%%%%%%%%%%%%%%%%%%...%%>>;,>;;;....&&*%%++$$$$$$$...&&&..@@@=$$$$$=====@@@@@@@@+++...",
"  ...+++@@@@@@@@@@++++===@@@@++.$$$$$$$$$$$$$$$$$@@@@...,;;;.;>;%%...%%%%%%%%%%%%%%%%%%%%%%%%...%%>>.,>;;,.....&&%$$$$$$$$$$$....$$.+@@@@===++++@@@@@@@@@@+++...",
"  ...+++@@@@@@@@@@@@+++@@@@@@+.$$$$$$$$$$$$$$$$$$$@@@@..,;;;.>>;%%...%%%%%%%%%%%%%%%%%%%%%%%%...%%>>.;>;;,..@@..++$$$$$$$$$$$$$$$$$.+@@@@@@+++@@@@@@@@@@@@+++...",
"  ...+++@@@@@@@@@@@@@@@@@@@@@+$$$$$$$$$$$$$$$$$$$$$@@@...;;;,>>;%%%..%%%%%%%%%%&%%%%%%%%%%%%%..,%%>;.;;;;...@@@$$$$$$$$$$$$$$$$$$$$$+@@@@@@@@@@@@@@@@@@@@@+++...",
"   .++....@@@@@@@@@@@@@@@@@@@+$$$$$$$$$$$$$$$$$$$$$@@....;;;,>>>;%%..%%%%%&&&&%%%%%%%%%%%%%%%..,%;>;,;;;;....@@$$$$$$$$$$$$$$$$$$$$$+@@@@@@@@@@@@@@@@@@@....++. ",
"   .+......@..@@@@@@@@@@@@@@++===$$$$$$$$$$$$$$$$$$@.....;;;,>>>;%%..%%%%%%%%%%%&%%%&&&&&%%%%..%%;>;,;;;;.....@$$$$$$$$$$$$$$$$$$===++@@@@@@@@@@@@@@..@......+. ",
"     .    .....@@@@@@@@@@++++++===$$$$$$$$$$$$$$@@+++++...;;,>>;;%%..%%&&&&&&&&&&&&&&&&%%%%%%..%%;;;,;;;...+++++@@$$$$$$$$$$$$$$===++++++@@@@@@@@@@.....    .   ",
"          ..  ..@@@@@@@@@@..++++========++++++++++@+++++..;;;>;;;%%..%%%%%%%%%%&&&&&&&%%%%%%...%%;;;;;;;..+++++@++++++++++========++++..@@@@@@@@@@..  ..        ",
"                 @@@@@@@@@..++++@@@@@@@@@@@@@@@@@@@+++++..;;;>;;;%%..%%%%%%%%%%&&&&&&&%%%%%%...%;;;;;;;;..+++++@@@@@@@@@@@@@@@@@@@++++..@@@@@@@@@               ",
"                  @@@@@@@....+++@@@@@@@@@@@@@@@@@@@@++++..;;;;;;,;;..%%&&&&&&&&&&&&&&%%%%%%%...%;;;;;;;;..++++@@@@@@@@@@@@@@@@@@@@+++....@@@@@@@                ",
"                      .......+++@@@@@@@@@@@@@@@@@@@@+++++.;;;;;;,;;..%%&&%%%%&&&&&&%%&&&&&%%...;;,;;;;;..+++..@@@@@@@@@@@@@@@@@@@@+++.......                    ",
"                            ..++@@@@@@@@@@@@@@@@...@..+++.;,;;;;,;;..%%%%%%%%&&&&&&&&&&&&&%%...;;,;;,;;..++....@..@@@@@@@@@@@@@@@@++....                        ",
"                             ...@@@@@@@@@@@@@@@........++..,;;;;,;;..%%%%%%%&&&&&&&&&&&&%%%%...;;,;;,;;..+..  .....@@@@@@@@@@@@@@@.....                         ",
"                               ..@@@@@@@@@@@@@@..  .    ...,;,;;,,;;.%%%%%%%&&&&&&&&&&&&%&&%..;;;,;;,;;....   ..  ...@@@@@@@@@@@@.....                          ",
"                                 .... @@@      .         ..,;,;;,,;;.%%%%%&&&&&&&&&&&&&&&&&...;;;,;;,;;.. .   ..        @@@@......                              ",
"                                                         ..,,.;;.,;;..%%%%%%         &&&&&&...;...;,,;;..                                                       ",
"                                                        ......;,.,;;...                     ...  ..,,;..                                                        ",
"                                                        .... ..,.,;;.....                     .   ..,..                                                         ",
"                                                       .  .   ..                                                                                                "};
