/* XPM */
static char * persoo_xpm[] = {
"103 101 10 1",
" 	c None",
".	c #161C2E",
"+	c #775396",
"@	c #A8719A",
"#	c #433D5B",
"$	c #977B6B",
"%	c #D5B583",
"&	c #FFFFFF",
"*	c #EFE1AB",
"=	c #EDE6AC",
"                                                                                                       ",
"                                                                                                       ",
"                                                                                                       ",
"                                                                                                       ",
"                                    .......                                                            ",
"                                  ...++++.....                                                         ",
"                                ......++........                                                       ",
"                               ......++@@@@@@.....                                                     ",
"                              .....+++@@@@@@@@@@....                                                   ",
"                             ....+++++++@@@+++@@@++..                                                  ",
"                            ...##+++@@@@@@+++@@@@@@@..                                                 ",
"                           .....+++++@@@@@@@@@@@@@@@@..                                                ",
"                           ...+++++++@@@@@@@@++@@@@@+++.                                               ",
"                          ....+++++++@@@@@@@@@++@@@@@+...                                              ",
"                          ..####++++++@@@@@@@@@++@@@@@@..                                              ",
"                          ...#++++++......@@@@@@@.@@@@@...                                             ",
"                          ..###+++..........@@@@@+.+@@@++.                                             ",
"                          ..#++++............@@@@@..@@@@..                                             ",
"                          ..#+++++######......@@@@@..@@@+..                                            ",
"                          ..##+++########......+@@@+..@@+..                                            ",
"                          ...###+++#######......+@@+..@++..                                            ",
"                           ..##+++########......++@@..@##..                                            ",
"                           ...###########.......##++.+++##.                                            ",
"                            ....#######....  ....++###+##..                                            ",
"                             .............    ...++...+#..                                             ",
"                              ...........     ...++..++...                                             ",
"                                 ......      ....+###++..                                              ",
"                                         ........+...+.....                                            ",
"                                       .....$...##...#.......                                 %%       ",
"                                      ...$$$$..##......%%%....                               %%%       ",
"                                     ...%%%%$#.##......&&&&&...                             %%%%       ",
"                                    .....&&&&&&&&&&&&&&&&&%.....                           %%%%%       ",
"                                   ........%%&&&&&&&&&&%%%......                          %%%&%.       ",
"                                   ...$$....******%%%%%*****%%...                        %%%&&..       ",
"                                  ....$$$%******************%%%..                       %%%&&&..       ",
"                                  ....$$$%%*********&&&&&&*%%%%..                      .%%&&&=..       ",
"                                  ...$$$$%%%****&&&&&&&&&&&&**%%..                    ..%&&&&=..       ",
"                                 ....$$$%%%%**********&&&&&&***%..                   %..&&&&==..       ",
"                                 ...$$$$%%%%*************..%****%..                  %.=&&&&==..       ",
"                                 ...$$$$%%%%***********&&..%%***%..                 %%%=&&&%==..       ",
"                                 ...$$$$%%%%%%%**********...%%***...                %%&=&&%%==..       ",
"                                .....$$%%%%%%%********&&&...%%&&*...               ..%&=&&%%%=..       ",
"                                ...$$$$%%%%%%%%%*****&&&&....%%**...               ..&&=&%%=%=..       ",
"                                ...$$$$%%%%%%%%%%%%**&&&&....%%**%%.              ...&&=%%%=%..        ",
"                                ...$$$$%%%%%%%%%%%*******....%%%&&..              ..=&==%%%=...        ",
"                   ....        ....$$$%%%%%%%%%%%%****&&&.....%%**...            ...===%%%%%..         ",
"                  ......       ....$$$%%%%%%%%%%%%*****&&.....%%**...            ..====%%%%...         ",
"                  ...%...      ....$$$$%%%%%%%%%%%****&&.............           ...===%%%%%..          ",
"                  ...%%...     .......$$$$%%.........................           ..===%%%%%...          ",
"                  ....%%%...   ......$$$%%%%%%........................         ...===%%%%%..           ",
"                  .....%%%...   ....$$$$%%%%%***.................**...         ..===.%%%%...           ",
"                  ......%%%.... ....$$$$%%%%%%*****............%%&*...        ...==..%%%%..            ",
"                  ..+....%%%.........$$%%%%%%%%%********&......%%***..        ..===..%%%...            ",
"                  ..+++...%%%........$$$$$$$%%%%%%****&&&&....%%****..       ...==$.%%%%..             ",
"                  ..+++++..%%%%.......$$$$$%%%%%%%*****&&&....%%&&**..       ..===$.%%%...             ",
"                  ..+++++++..$$$$......$$$$%%%%%%%%******&...%%&&***..      ...==$..%%%..              ",
"                  ..+++++++$$$$%%%%.....$$$%%%%%%%%******&...%%***%%.....   ..%==$.%%%...              ",
"                  ..+++++++++%%%%%%%%%......%%%%%%%%****&&...%*****........ ..%=.$.%%%..               ",
"                  ..++++++++%%.....==%%===...%%%%%%%******..%%*****...@@@....%%%..%%%...               ",
"                  ..++++++++%%%%......====...%%%%%%%******&&&*****....@@@+...%%...%%%..                ",
"                  ..++++@@@+%%%%%%%.....%%....%%%%%%*****&&&&****%...+.+@+..%%%..$%%...                ",
"                  ..++++++++%%%%%%%%%...%%.......%%%**********%%%...@+...+..%%...$%%..                 ",
"                  ..+++++@@@====%%%%%%..=%.........%*****&&&***%....@@+....%%%..$$$...                 ",
"                  ..+++++++@===%%%%%%%..=%...........**********..#..@@@+...%%...$$$..                  ",
"                  ..++++++@@@====%%%%%..%%.............%%*****..###.+@@++......$$$....                 ",
"                  ..+++++++@@=%%%%%%%%..%%...##...........**....##...+++++.....$$$.....                ",
"                  ..%++++++@@%%===%%%%$.%%...#####.............#####..++++++.......#....               ",
"                  ..%%%++++++==%==%%%%$.%%...++######.........##++##....+++###.....##++..              ",
"                  ..%%%%%++++%%%%%%%%%$.%%...#+++######......##++##.......+++###....##+..              ",
"                  ..%%%%%==@@%%%%%%%%%$$%%...#+++++######...###++##...$$....######.......              ",
"                  ..%%%%%===@%%%%%%%%%$$%%...#+++++++#########++##...$$$$$....###.......               ",
"                  ..%%%%=====++%%%%%%%$$%%...##++++++++######++##....$$$%%%.....#####..                ",
"                  ...%%%%%%==++++%%%%%.$%%...+++++++++++####++++.....$$%%%%%......##...                ",
"                  ...%%%%====@@@+++%%%.$%%...#+++++++++++++++##......$$%%%%%%$........                 ",
"                   ..%%%%%%==@@@@+@++%..%%...###++++++++++++++.......$$%%%%%%%........                 ",
"                   ...%%%%%%%+@@++@+++..$%...#####++++++++++#.........$$%%%%%%...                      ",
"                    ..%%%%%%%++@@+++++..$%...##############......  ....$$$%%%...                       ",
"                    ...%%%%%%%++++++++..$$......................  ..............                       ",
"                     ...%%%%%%++++++++..$$....................    ..##.........                        ",
"                      ...%%%%%++++++++.$$...................      ..###......                          ",
"                       ...%%%%%++++++.$$........      ......      ...##..                              ",
"                        ...%%%%+++++..$.........     ......       .......                              ",
"                         ...%%%++++..$...  .....     ......        .....                               ",
"                          ...%%+++......    .....    .....                                             ",
"                           ...%++..$...     .....    ....                                              ",
"                            ...+..$$..    .......   .......                                            ",
"                             .....$..    ........   ........                                           ",
"                              ......                                                                   ",
"                               ....                                                                    ",
"                                ..                                                                     ",
"                                                                                                       ",
"                                                                                                       ",
"                                                                                                       ",
"                                                                                                       ",
"                                                                                                       ",
"                                                                                                       ",
"                                                                                                       ",
"                                                                                                       ",
"                                                                                                       ",
"                                                                                                       ",
"                                                                                                       "};
